{"title":"Jungle Book (2016) HQ 1080p Blu-ray x264 DTS-HDMA 7.1 Msubs -DDR","uid":15531329,"size":12857423315,"categoryP":"video","categoryS":"hd___movies","magnet":"?xt=urn:btih:11f910380e7c1708e9163be86a39ae9fe307e834&amp;dn=Jungle+Book+%282016%29+HQ+1080p+Blu-ray+x264+DTS-HDMA+7.1+Msubs+-DDR&amp;tr=udp%3A%2F%2Ftracker.leechers-paradise.org%3A6969&amp;tr=udp%3A%2F%2Fzer0day.ch%3A1337&amp;tr=udp%3A%2F%2Fopen.demonii.com%3A1337&amp;tr=udp%3A%2F%2Ftracker.coppersurfer.tk%3A6969&amp;tr=udp%3A%2F%2Fexodus.desync.com%3A6969","seeders":5,"leechers":2,"uploader":"SaM","files":3,"time":1470832275,"description":"HQ 1080p Blu-ray Rip x264\r\n\r\nDTS HD Master Audio 7.1 English\r\n\r\nArabic, English &amp; impaired Subtitles \r\n \nhttp://extraimago.com/image/wjrO \nhttp://extraimago.com/image/wjrS \nhttp://extraimago.com/image/wjrq \nhttp://extraimago.com/image/wjry \nhttp://extraimago.com/image/wjrL \nhttp://extraimago.com/image/wjrQ \nhttp://extraimago.com/image/wjrR \nhttp://extraimago.com/image/wjri \nhttp://extraimago.com/image/wjrl \nhttp://extraimago.com/image/wjrm \nhttp://extraimago.com/image/wjrI \nhttp://extraimago.com/image/wjrd \nhttp://extraimago.com/image/wjr3 \nhttp://extraimago.com/image/wjr9 \nhttp://extraimago.com/image/wjrh\r\n\r\nSpecs:\r\n\r\nSource: BD50 @ DDR\r\n\r\nFormat : Matroska\r\nFile size : 11.8 GiB\r\nDuration : 1h 45mn\r\nOverall bit rate : 15.9 Mbps\r\n\r\n\r\nVideo\r\nFormat : AVC\r\nFormat/Info : Advanced Video Codec\r\nFormat profile :   \r\nFormat settings, CABAC : Yes\r\nFormat settings, ReFrames : 4 frames\r\nCodec ID : V_MPEG4/ISO/AVC\r\nDuration : 1h 45mn\r\nBit rate : 10.6 Mbps\r\nWidth : 1 920 pixels\r\nHeight : 1 040 pixels\r\nDisplay aspect ratio : 1.85:1\r\nFrame rate mode : Constant\r\nFrame rate : 23.976 (24000/1001) fps\r\ncolor space : YUV\r\nChroma subsampling : 4:2:0\r\nBit depth : 8 bits\r\nScan type : Progressive\r\nBits/(Pixel*Frame) : 0.221\r\nStream size : 7.82 GiB (66%)\r\ncolor primaries : BT.709\r\nTransfer characteristics : BT.709\r\nMatrix coefficients : BT.709\r\n\r\nAudio #1\r\nFormat : DTS\r\nFormat/Info : Digital Theater Systems\r\nFormat profile : MA / Core\r\nMode : 16\r\nFormat settings, Endianness : Big\r\nCodec ID : A_DTS\r\nDuration : 1h 45mn\r\nBit rate mode : Variable / Constant\r\nBit rate : 2 821 Kbps / 1 509 Kbps\r\nChannel(s) : 8 channels / 6 channels\r\nChannel positions : Front: L C R, Side: L R, Back: L R, LFE / Front: L C R, Side: L R, LFE\r\nSampling rate : 48.0 KHz\r\nFrame rate : 93.750 fps (512 spf)\r\nBit depth : 16 bits\r\nCompression mode : Lossless / Lossy\r\nStream size : 2.09 GiB (15%)\r\nLanguage : Hindi\r\nDefault : No\r\nForced : No\r\n\r\n\r\nChapters : YES","torrent":{"xt":"urn:btih:11f910380e7c1708e9163be86a39ae9fe307e834","amp;dn":"Jungle+Book+%282016%29+HQ+1080p+Blu-ray+x264+DTS-HDMA+7.1+Msubs+-DDR","amp;tr":["udp%3A%2F%2Ftracker.leechers-paradise.org%3A6969","udp%3A%2F%2Fzer0day.ch%3A1337","udp%3A%2F%2Fopen.demonii.com%3A1337","udp%3A%2F%2Ftracker.coppersurfer.tk%3A6969","udp%3A%2F%2Fexodus.desync.com%3A6969"],"infoHash":"11f910380e7c1708e9163be86a39ae9fe307e834","infoHashBuffer":{"type":"Buffer","data":[17,249,16,56,14,124,23,8,233,22,59,232,106,57,174,159,227,7,232,52]},"announce":[],"urlList":[]}}